<mxfile host="app.diagrams.net" modified="2024-02-12T15:54:00.551Z" agent="Mozilla/5.0 (Windows NT 10.0; Win64; x64) AppleWebKit/537.36 (KHTML, like Gecko) Chrome/121.0.0.0 Safari/537.36" etag="nm1lac-gqjwlmcDu-499" version="23.1.2" type="github">
  <diagram name="Page-1" id="55a83fd1-7818-8e21-69c5-c3457e3827bb">
    <mxGraphModel dx="2053" dy="1368" grid="1" gridSize="10" guides="1" tooltips="1" connect="1" arrows="1" fold="1" page="1" pageScale="1" pageWidth="1100" pageHeight="850" background="none" math="0" shadow="0">
      <root>
        <mxCell id="0" />
        <mxCell id="1" parent="0" />
        <mxCell id="Wi1XZ3cjMd3mnHMxQqUJ-26" value="" style="fontColor=#0066CC;verticalAlign=top;verticalLabelPosition=bottom;labelPosition=center;align=center;html=1;outlineConnect=0;fillColor=#CCCCCC;strokeColor=#6881B3;gradientColor=none;gradientDirection=north;strokeWidth=2;shape=mxgraph.networks.pc;fontSize=16;" vertex="1" parent="1">
          <mxGeometry x="90" y="400" width="60" height="40" as="geometry" />
        </mxCell>
        <mxCell id="Wi1XZ3cjMd3mnHMxQqUJ-27" value="" style="image;html=1;image=img/lib/clip_art/networking/Cloud_128x128.png;fontSize=16;" vertex="1" parent="1">
          <mxGeometry x="360" y="-70" width="80" height="80" as="geometry" />
        </mxCell>
        <mxCell id="Wi1XZ3cjMd3mnHMxQqUJ-125" style="edgeStyle=none;curved=1;rounded=0;orthogonalLoop=1;jettySize=auto;html=1;exitX=0.5;exitY=1;exitDx=0;exitDy=0;exitPerimeter=0;fontSize=12;startSize=8;endSize=8;entryX=0.5;entryY=1;entryDx=0;entryDy=0;entryPerimeter=0;" edge="1" parent="1" source="Wi1XZ3cjMd3mnHMxQqUJ-29" target="Wi1XZ3cjMd3mnHMxQqUJ-29">
          <mxGeometry relative="1" as="geometry">
            <mxPoint x="325" y="460" as="targetPoint" />
          </mxGeometry>
        </mxCell>
        <mxCell id="Wi1XZ3cjMd3mnHMxQqUJ-163" style="edgeStyle=none;curved=1;rounded=0;orthogonalLoop=1;jettySize=auto;html=1;exitX=0.1;exitY=1;exitDx=0;exitDy=0;exitPerimeter=0;fontSize=12;startSize=8;endSize=8;" edge="1" parent="1" source="Wi1XZ3cjMd3mnHMxQqUJ-29" target="Wi1XZ3cjMd3mnHMxQqUJ-26">
          <mxGeometry relative="1" as="geometry" />
        </mxCell>
        <mxCell id="Wi1XZ3cjMd3mnHMxQqUJ-164" style="edgeStyle=none;curved=1;rounded=0;orthogonalLoop=1;jettySize=auto;html=1;exitX=0;exitY=0.5;exitDx=0;exitDy=0;exitPerimeter=0;fontSize=12;startSize=8;endSize=8;" edge="1" parent="1" source="Wi1XZ3cjMd3mnHMxQqUJ-29">
          <mxGeometry relative="1" as="geometry">
            <mxPoint x="70" y="390" as="targetPoint" />
          </mxGeometry>
        </mxCell>
        <mxCell id="Wi1XZ3cjMd3mnHMxQqUJ-165" style="edgeStyle=none;curved=1;rounded=0;orthogonalLoop=1;jettySize=auto;html=1;exitX=0.5;exitY=1;exitDx=0;exitDy=0;exitPerimeter=0;fontSize=12;startSize=8;endSize=8;" edge="1" parent="1" source="Wi1XZ3cjMd3mnHMxQqUJ-29" target="Wi1XZ3cjMd3mnHMxQqUJ-35">
          <mxGeometry relative="1" as="geometry" />
        </mxCell>
        <mxCell id="Wi1XZ3cjMd3mnHMxQqUJ-166" style="edgeStyle=none;curved=1;rounded=0;orthogonalLoop=1;jettySize=auto;html=1;exitX=0.9;exitY=1;exitDx=0;exitDy=0;exitPerimeter=0;fontSize=12;startSize=8;endSize=8;" edge="1" parent="1" source="Wi1XZ3cjMd3mnHMxQqUJ-29" target="Wi1XZ3cjMd3mnHMxQqUJ-34">
          <mxGeometry relative="1" as="geometry" />
        </mxCell>
        <mxCell id="Wi1XZ3cjMd3mnHMxQqUJ-167" style="edgeStyle=none;curved=1;rounded=0;orthogonalLoop=1;jettySize=auto;html=1;exitX=1;exitY=0.5;exitDx=0;exitDy=0;exitPerimeter=0;fontSize=12;startSize=8;endSize=8;" edge="1" parent="1" source="Wi1XZ3cjMd3mnHMxQqUJ-29" target="Wi1XZ3cjMd3mnHMxQqUJ-139">
          <mxGeometry relative="1" as="geometry" />
        </mxCell>
        <mxCell id="Wi1XZ3cjMd3mnHMxQqUJ-168" style="edgeStyle=none;curved=1;rounded=0;orthogonalLoop=1;jettySize=auto;html=1;exitX=0.05;exitY=0.05;exitDx=0;exitDy=0;exitPerimeter=0;fontSize=12;startSize=8;endSize=8;" edge="1" parent="1" source="Wi1XZ3cjMd3mnHMxQqUJ-29">
          <mxGeometry relative="1" as="geometry">
            <mxPoint x="80" y="490" as="targetPoint" />
          </mxGeometry>
        </mxCell>
        <mxCell id="Wi1XZ3cjMd3mnHMxQqUJ-170" style="edgeStyle=none;curved=1;rounded=0;orthogonalLoop=1;jettySize=auto;html=1;exitX=0.95;exitY=0.05;exitDx=0;exitDy=0;exitPerimeter=0;fontSize=12;startSize=8;endSize=8;" edge="1" parent="1" source="Wi1XZ3cjMd3mnHMxQqUJ-29" target="Wi1XZ3cjMd3mnHMxQqUJ-40">
          <mxGeometry relative="1" as="geometry" />
        </mxCell>
        <mxCell id="Wi1XZ3cjMd3mnHMxQqUJ-29" value="" style="fontColor=#0066CC;verticalAlign=top;verticalLabelPosition=bottom;labelPosition=center;align=center;html=1;outlineConnect=0;fillColor=#CCCCCC;strokeColor=#6881B3;gradientColor=none;gradientDirection=north;strokeWidth=2;shape=mxgraph.networks.switch;fontSize=16;" vertex="1" parent="1">
          <mxGeometry x="165" y="285" width="100" height="30" as="geometry" />
        </mxCell>
        <mxCell id="Wi1XZ3cjMd3mnHMxQqUJ-31" value="8 other users" style="text;strokeColor=none;fillColor=none;html=1;align=center;verticalAlign=middle;whiteSpace=wrap;rounded=0;fontSize=16;" vertex="1" parent="1">
          <mxGeometry y="330" width="60" height="30" as="geometry" />
        </mxCell>
        <mxCell id="Wi1XZ3cjMd3mnHMxQqUJ-33" style="edgeStyle=none;curved=1;rounded=0;orthogonalLoop=1;jettySize=auto;html=1;exitX=0.95;exitY=1;exitDx=0;exitDy=0;exitPerimeter=0;fontSize=12;startSize=8;endSize=8;" edge="1" parent="1" source="Wi1XZ3cjMd3mnHMxQqUJ-26" target="Wi1XZ3cjMd3mnHMxQqUJ-26">
          <mxGeometry relative="1" as="geometry" />
        </mxCell>
        <mxCell id="Wi1XZ3cjMd3mnHMxQqUJ-34" value="" style="fontColor=#0066CC;verticalAlign=top;verticalLabelPosition=bottom;labelPosition=center;align=center;html=1;outlineConnect=0;fillColor=#CCCCCC;strokeColor=#6881B3;gradientColor=none;gradientDirection=north;strokeWidth=2;shape=mxgraph.networks.pc;fontSize=16;" vertex="1" parent="1">
          <mxGeometry x="215" y="400" width="60" height="40" as="geometry" />
        </mxCell>
        <mxCell id="Wi1XZ3cjMd3mnHMxQqUJ-35" value="" style="fontColor=#0066CC;verticalAlign=top;verticalLabelPosition=bottom;labelPosition=center;align=center;html=1;outlineConnect=0;fillColor=#CCCCCC;strokeColor=#6881B3;gradientColor=none;gradientDirection=north;strokeWidth=2;shape=mxgraph.networks.pc;fontSize=16;" vertex="1" parent="1">
          <mxGeometry x="155" y="400" width="60" height="40" as="geometry" />
        </mxCell>
        <mxCell id="Wi1XZ3cjMd3mnHMxQqUJ-36" value="" style="fontColor=#0066CC;verticalAlign=top;verticalLabelPosition=bottom;labelPosition=center;align=center;html=1;outlineConnect=0;fillColor=#CCCCCC;strokeColor=#6881B3;gradientColor=none;gradientDirection=north;strokeWidth=2;shape=mxgraph.networks.pc;fontSize=16;" vertex="1" parent="1">
          <mxGeometry x="32.5" y="500" width="60" height="40" as="geometry" />
        </mxCell>
        <mxCell id="Wi1XZ3cjMd3mnHMxQqUJ-37" value="" style="fontColor=#0066CC;verticalAlign=top;verticalLabelPosition=bottom;labelPosition=center;align=center;html=1;outlineConnect=0;fillColor=#CCCCCC;strokeColor=#6881B3;gradientColor=none;gradientDirection=north;strokeWidth=2;shape=mxgraph.networks.pc;fontSize=16;" vertex="1" parent="1">
          <mxGeometry x="560" y="500" width="60" height="40" as="geometry" />
        </mxCell>
        <mxCell id="Wi1XZ3cjMd3mnHMxQqUJ-38" value="" style="fontColor=#0066CC;verticalAlign=top;verticalLabelPosition=bottom;labelPosition=center;align=center;html=1;outlineConnect=0;fillColor=#CCCCCC;strokeColor=#6881B3;gradientColor=none;gradientDirection=north;strokeWidth=2;shape=mxgraph.networks.pc;fontSize=16;" vertex="1" parent="1">
          <mxGeometry x="110" y="500" width="60" height="40" as="geometry" />
        </mxCell>
        <mxCell id="Wi1XZ3cjMd3mnHMxQqUJ-39" value="" style="fontColor=#0066CC;verticalAlign=top;verticalLabelPosition=bottom;labelPosition=center;align=center;html=1;outlineConnect=0;fillColor=#CCCCCC;strokeColor=#6881B3;gradientColor=none;gradientDirection=north;strokeWidth=2;shape=mxgraph.networks.pc;fontSize=16;" vertex="1" parent="1">
          <mxGeometry x="30" y="398" width="60" height="40" as="geometry" />
        </mxCell>
        <mxCell id="Wi1XZ3cjMd3mnHMxQqUJ-40" value="" style="fontColor=#0066CC;verticalAlign=top;verticalLabelPosition=bottom;labelPosition=center;align=center;html=1;outlineConnect=0;fillColor=#CCCCCC;strokeColor=#6881B3;gradientColor=none;gradientDirection=north;strokeWidth=2;shape=mxgraph.networks.pc;fontSize=16;" vertex="1" parent="1">
          <mxGeometry x="215" y="500" width="60" height="40" as="geometry" />
        </mxCell>
        <mxCell id="Wi1XZ3cjMd3mnHMxQqUJ-41" value="" style="fontColor=#0066CC;verticalAlign=top;verticalLabelPosition=bottom;labelPosition=center;align=center;html=1;outlineConnect=0;fillColor=#CCCCCC;strokeColor=#6881B3;gradientColor=none;gradientDirection=north;strokeWidth=2;shape=mxgraph.networks.pc;fontSize=16;" vertex="1" parent="1">
          <mxGeometry x="710" y="495" width="60" height="40" as="geometry" />
        </mxCell>
        <mxCell id="Wi1XZ3cjMd3mnHMxQqUJ-42" value="" style="fontColor=#0066CC;verticalAlign=top;verticalLabelPosition=bottom;labelPosition=center;align=center;html=1;outlineConnect=0;fillColor=#CCCCCC;strokeColor=#6881B3;gradientColor=none;gradientDirection=north;strokeWidth=2;shape=mxgraph.networks.pc;fontSize=16;" vertex="1" parent="1">
          <mxGeometry x="120" y="65" width="60" height="40" as="geometry" />
        </mxCell>
        <mxCell id="Wi1XZ3cjMd3mnHMxQqUJ-43" value="" style="fontColor=#0066CC;verticalAlign=top;verticalLabelPosition=bottom;labelPosition=center;align=center;html=1;outlineConnect=0;fillColor=#CCCCCC;strokeColor=#6881B3;gradientColor=none;gradientDirection=north;strokeWidth=2;shape=mxgraph.networks.printer;fontSize=16;" vertex="1" parent="1">
          <mxGeometry x="630" y="338" width="60" height="60" as="geometry" />
        </mxCell>
        <mxCell id="Wi1XZ3cjMd3mnHMxQqUJ-44" value="" style="fontColor=#0066CC;verticalAlign=top;verticalLabelPosition=bottom;labelPosition=center;align=center;html=1;outlineConnect=0;fillColor=#CCCCCC;strokeColor=#6881B3;gradientColor=none;gradientDirection=north;strokeWidth=2;shape=mxgraph.networks.printer;fontSize=16;" vertex="1" parent="1">
          <mxGeometry x="730" y="338" width="60" height="60" as="geometry" />
        </mxCell>
        <mxCell id="Wi1XZ3cjMd3mnHMxQqUJ-45" value="" style="fontColor=#0066CC;verticalAlign=top;verticalLabelPosition=bottom;labelPosition=center;align=center;html=1;outlineConnect=0;fillColor=#CCCCCC;strokeColor=#6881B3;gradientColor=none;gradientDirection=north;strokeWidth=2;shape=mxgraph.networks.printer;fontSize=16;" vertex="1" parent="1">
          <mxGeometry x="530" y="338" width="60" height="60" as="geometry" />
        </mxCell>
        <mxCell id="Wi1XZ3cjMd3mnHMxQqUJ-47" value="" style="fontColor=#0066CC;verticalAlign=top;verticalLabelPosition=bottom;labelPosition=center;align=center;html=1;outlineConnect=0;fillColor=#CCCCCC;strokeColor=#6881B3;gradientColor=none;gradientDirection=north;strokeWidth=2;shape=mxgraph.networks.user_male;fontSize=16;" vertex="1" parent="1">
          <mxGeometry x="32.5" y="210" width="40" height="100" as="geometry" />
        </mxCell>
        <mxCell id="Wi1XZ3cjMd3mnHMxQqUJ-48" value="" style="fontColor=#0066CC;verticalAlign=top;verticalLabelPosition=bottom;labelPosition=center;align=center;html=1;outlineConnect=0;fillColor=#CCCCCC;strokeColor=#6881B3;gradientColor=none;gradientDirection=north;strokeWidth=2;shape=mxgraph.networks.user_male;fontSize=16;" vertex="1" parent="1">
          <mxGeometry x="-10" y="210" width="40" height="100" as="geometry" />
        </mxCell>
        <mxCell id="Wi1XZ3cjMd3mnHMxQqUJ-49" value="" style="fontColor=#0066CC;verticalAlign=top;verticalLabelPosition=bottom;labelPosition=center;align=center;html=1;outlineConnect=0;fillColor=#CCCCCC;strokeColor=#6881B3;gradientColor=none;gradientDirection=north;strokeWidth=2;shape=mxgraph.networks.user_male;fontSize=16;" vertex="1" parent="1">
          <mxGeometry x="60" y="10" width="40" height="100" as="geometry" />
        </mxCell>
        <mxCell id="Wi1XZ3cjMd3mnHMxQqUJ-50" value="" style="fontColor=#0066CC;verticalAlign=top;verticalLabelPosition=bottom;labelPosition=center;align=center;html=1;outlineConnect=0;fillColor=#CCCCCC;strokeColor=#6881B3;gradientColor=none;gradientDirection=north;strokeWidth=2;shape=mxgraph.networks.user_male;fontSize=16;" vertex="1" parent="1">
          <mxGeometry x="730" y="120" width="40" height="100" as="geometry" />
        </mxCell>
        <mxCell id="Wi1XZ3cjMd3mnHMxQqUJ-52" value="Receptionist desk" style="text;strokeColor=none;fillColor=none;html=1;align=center;verticalAlign=middle;whiteSpace=wrap;rounded=0;fontSize=16;" vertex="1" parent="1">
          <mxGeometry x="730" y="405" width="60" height="30" as="geometry" />
        </mxCell>
        <mxCell id="Wi1XZ3cjMd3mnHMxQqUJ-53" value="Managers office" style="text;strokeColor=none;fillColor=none;html=1;align=center;verticalAlign=middle;whiteSpace=wrap;rounded=0;fontSize=16;" vertex="1" parent="1">
          <mxGeometry x="630" y="408" width="60" height="30" as="geometry" />
        </mxCell>
        <mxCell id="Wi1XZ3cjMd3mnHMxQqUJ-54" value="General office use" style="text;strokeColor=none;fillColor=none;html=1;align=center;verticalAlign=middle;whiteSpace=wrap;rounded=0;fontSize=16;" vertex="1" parent="1">
          <mxGeometry x="530" y="420" width="60" height="30" as="geometry" />
        </mxCell>
        <mxCell id="Wi1XZ3cjMd3mnHMxQqUJ-56" value="" style="fontColor=#0066CC;verticalAlign=top;verticalLabelPosition=bottom;labelPosition=center;align=center;html=1;outlineConnect=0;fillColor=#CCCCCC;strokeColor=#6881B3;gradientColor=none;gradientDirection=north;strokeWidth=2;shape=mxgraph.networks.storage;fontSize=16;" vertex="1" parent="1">
          <mxGeometry x="445" y="260" width="60" height="50" as="geometry" />
        </mxCell>
        <mxCell id="Wi1XZ3cjMd3mnHMxQqUJ-57" value="NFS Device" style="text;strokeColor=none;fillColor=none;html=1;align=center;verticalAlign=middle;whiteSpace=wrap;rounded=0;fontSize=16;" vertex="1" parent="1">
          <mxGeometry x="445" y="320" width="60" height="30" as="geometry" />
        </mxCell>
        <mxCell id="Wi1XZ3cjMd3mnHMxQqUJ-58" value="DHCP/NAT&amp;nbsp;&lt;br&gt;192.168.1.0" style="text;strokeColor=none;fillColor=none;html=1;align=center;verticalAlign=middle;whiteSpace=wrap;rounded=0;fontSize=16;" vertex="1" parent="1">
          <mxGeometry x="380" y="120" width="60" height="30" as="geometry" />
        </mxCell>
        <mxCell id="Wi1XZ3cjMd3mnHMxQqUJ-59" value="Diagram&amp;nbsp; Solution A" style="text;html=1;align=center;verticalAlign=middle;resizable=0;points=[];autosize=1;strokeColor=none;fillColor=none;fontSize=16;" vertex="1" parent="1">
          <mxGeometry x="325" y="-100" width="160" height="30" as="geometry" />
        </mxCell>
        <mxCell id="Wi1XZ3cjMd3mnHMxQqUJ-78" value="Internet" style="text;strokeColor=none;fillColor=none;html=1;align=center;verticalAlign=middle;whiteSpace=wrap;rounded=0;fontSize=16;" vertex="1" parent="1">
          <mxGeometry x="370" width="60" height="30" as="geometry" />
        </mxCell>
        <mxCell id="Wi1XZ3cjMd3mnHMxQqUJ-80" value="" style="fontColor=#0066CC;verticalAlign=top;verticalLabelPosition=bottom;labelPosition=center;align=center;html=1;outlineConnect=0;fillColor=#CCCCCC;strokeColor=#6881B3;gradientColor=none;gradientDirection=north;strokeWidth=2;shape=mxgraph.networks.user_female;fontSize=16;" vertex="1" parent="1">
          <mxGeometry x="10" y="220" width="40" height="100" as="geometry" />
        </mxCell>
        <mxCell id="Wi1XZ3cjMd3mnHMxQqUJ-82" value="receptionist" style="text;html=1;align=center;verticalAlign=middle;resizable=0;points=[];autosize=1;strokeColor=none;fillColor=none;fontSize=16;" vertex="1" parent="1">
          <mxGeometry x="695" y="230" width="110" height="30" as="geometry" />
        </mxCell>
        <mxCell id="Wi1XZ3cjMd3mnHMxQqUJ-83" value="Manager" style="text;html=1;align=center;verticalAlign=middle;resizable=0;points=[];autosize=1;strokeColor=none;fillColor=none;fontSize=16;" vertex="1" parent="1">
          <mxGeometry x="10" y="118" width="90" height="30" as="geometry" />
        </mxCell>
        <mxCell id="Wi1XZ3cjMd3mnHMxQqUJ-123" style="edgeStyle=none;curved=1;rounded=0;orthogonalLoop=1;jettySize=auto;html=1;exitX=0;exitY=1;exitDx=0;exitDy=0;exitPerimeter=0;fontSize=12;startSize=8;endSize=8;" edge="1" parent="1" source="Wi1XZ3cjMd3mnHMxQqUJ-84">
          <mxGeometry relative="1" as="geometry">
            <mxPoint x="260" y="270" as="targetPoint" />
          </mxGeometry>
        </mxCell>
        <mxCell id="Wi1XZ3cjMd3mnHMxQqUJ-124" style="edgeStyle=none;curved=1;rounded=0;orthogonalLoop=1;jettySize=auto;html=1;exitX=1;exitY=1;exitDx=0;exitDy=0;exitPerimeter=0;fontSize=12;startSize=8;endSize=8;" edge="1" parent="1" source="Wi1XZ3cjMd3mnHMxQqUJ-84" target="Wi1XZ3cjMd3mnHMxQqUJ-111">
          <mxGeometry relative="1" as="geometry" />
        </mxCell>
        <mxCell id="Wi1XZ3cjMd3mnHMxQqUJ-145" style="edgeStyle=none;curved=1;rounded=0;orthogonalLoop=1;jettySize=auto;html=1;exitX=0.5;exitY=1;exitDx=0;exitDy=0;exitPerimeter=0;fontSize=12;startSize=8;endSize=8;" edge="1" parent="1" source="Wi1XZ3cjMd3mnHMxQqUJ-146" target="Wi1XZ3cjMd3mnHMxQqUJ-144">
          <mxGeometry relative="1" as="geometry" />
        </mxCell>
        <mxCell id="Wi1XZ3cjMd3mnHMxQqUJ-84" value="" style="fontColor=#0066CC;verticalAlign=top;verticalLabelPosition=bottom;labelPosition=center;align=center;html=1;outlineConnect=0;fillColor=#CCCCCC;strokeColor=#6881B3;gradientColor=none;gradientDirection=north;strokeWidth=2;shape=mxgraph.networks.firewall;fontSize=16;" vertex="1" parent="1">
          <mxGeometry x="375" y="180.5" width="70" height="55" as="geometry" />
        </mxCell>
        <mxCell id="Wi1XZ3cjMd3mnHMxQqUJ-108" value="" style="fontColor=#0066CC;verticalAlign=top;verticalLabelPosition=bottom;labelPosition=center;align=center;html=1;outlineConnect=0;fillColor=#CCCCCC;strokeColor=#6881B3;gradientColor=none;gradientDirection=north;strokeWidth=2;shape=mxgraph.networks.firewall;fontSize=16;" vertex="1" parent="1">
          <mxGeometry x="250" y="70" width="40" height="40" as="geometry" />
        </mxCell>
        <mxCell id="Wi1XZ3cjMd3mnHMxQqUJ-109" value="" style="fontColor=#0066CC;verticalAlign=top;verticalLabelPosition=bottom;labelPosition=center;align=center;html=1;outlineConnect=0;fillColor=#CCCCCC;strokeColor=#6881B3;gradientColor=none;gradientDirection=north;strokeWidth=2;shape=mxgraph.networks.biometric_reader;fontSize=16;" vertex="1" parent="1">
          <mxGeometry x="200" y="70" width="30" height="40" as="geometry" />
        </mxCell>
        <mxCell id="Wi1XZ3cjMd3mnHMxQqUJ-111" value="Switch 2" style="text;strokeColor=none;fillColor=none;html=1;align=center;verticalAlign=middle;whiteSpace=wrap;rounded=0;fontSize=16;" vertex="1" parent="1">
          <mxGeometry x="575" y="230" width="70" height="30" as="geometry" />
        </mxCell>
        <mxCell id="Wi1XZ3cjMd3mnHMxQqUJ-112" value="Switch 1" style="text;strokeColor=none;fillColor=none;html=1;align=center;verticalAlign=middle;whiteSpace=wrap;rounded=0;fontSize=16;" vertex="1" parent="1">
          <mxGeometry x="180" y="230" width="70" height="30" as="geometry" />
        </mxCell>
        <mxCell id="Wi1XZ3cjMd3mnHMxQqUJ-143" style="edgeStyle=none;curved=1;rounded=0;orthogonalLoop=1;jettySize=auto;html=1;exitX=0.95;exitY=0.05;exitDx=0;exitDy=0;exitPerimeter=0;fontSize=12;startSize=8;endSize=8;" edge="1" parent="1" source="Wi1XZ3cjMd3mnHMxQqUJ-113">
          <mxGeometry relative="1" as="geometry">
            <mxPoint x="710" y="280" as="targetPoint" />
          </mxGeometry>
        </mxCell>
        <mxCell id="Wi1XZ3cjMd3mnHMxQqUJ-173" style="edgeStyle=none;curved=1;rounded=0;orthogonalLoop=1;jettySize=auto;html=1;exitX=1;exitY=0.5;exitDx=0;exitDy=0;exitPerimeter=0;fontSize=12;startSize=8;endSize=8;" edge="1" parent="1" source="Wi1XZ3cjMd3mnHMxQqUJ-113" target="Wi1XZ3cjMd3mnHMxQqUJ-44">
          <mxGeometry relative="1" as="geometry" />
        </mxCell>
        <mxCell id="Wi1XZ3cjMd3mnHMxQqUJ-174" style="edgeStyle=none;curved=1;rounded=0;orthogonalLoop=1;jettySize=auto;html=1;exitX=0.9;exitY=1;exitDx=0;exitDy=0;exitPerimeter=0;fontSize=12;startSize=8;endSize=8;entryX=0.5;entryY=0.07;entryDx=0;entryDy=0;entryPerimeter=0;" edge="1" parent="1" source="Wi1XZ3cjMd3mnHMxQqUJ-113" target="Wi1XZ3cjMd3mnHMxQqUJ-141">
          <mxGeometry relative="1" as="geometry">
            <mxPoint x="660" y="330" as="targetPoint" />
          </mxGeometry>
        </mxCell>
        <mxCell id="Wi1XZ3cjMd3mnHMxQqUJ-175" style="edgeStyle=none;curved=1;rounded=0;orthogonalLoop=1;jettySize=auto;html=1;exitX=0.5;exitY=1;exitDx=0;exitDy=0;exitPerimeter=0;fontSize=12;startSize=8;endSize=8;" edge="1" parent="1" source="Wi1XZ3cjMd3mnHMxQqUJ-113">
          <mxGeometry relative="1" as="geometry">
            <mxPoint x="750" y="490" as="targetPoint" />
          </mxGeometry>
        </mxCell>
        <mxCell id="Wi1XZ3cjMd3mnHMxQqUJ-178" style="edgeStyle=none;curved=1;rounded=0;orthogonalLoop=1;jettySize=auto;html=1;exitX=0.05;exitY=0.05;exitDx=0;exitDy=0;exitPerimeter=0;fontSize=12;startSize=8;endSize=8;entryX=0.5;entryY=0.07;entryDx=0;entryDy=0;entryPerimeter=0;" edge="1" parent="1" source="Wi1XZ3cjMd3mnHMxQqUJ-113" target="Wi1XZ3cjMd3mnHMxQqUJ-37">
          <mxGeometry relative="1" as="geometry" />
        </mxCell>
        <mxCell id="Wi1XZ3cjMd3mnHMxQqUJ-179" style="edgeStyle=none;curved=1;rounded=0;orthogonalLoop=1;jettySize=auto;html=1;exitX=0;exitY=0.5;exitDx=0;exitDy=0;exitPerimeter=0;fontSize=12;startSize=8;endSize=8;" edge="1" parent="1" source="Wi1XZ3cjMd3mnHMxQqUJ-113">
          <mxGeometry relative="1" as="geometry">
            <mxPoint x="550" y="330" as="targetPoint" />
          </mxGeometry>
        </mxCell>
        <mxCell id="Wi1XZ3cjMd3mnHMxQqUJ-113" value="" style="fontColor=#0066CC;verticalAlign=top;verticalLabelPosition=bottom;labelPosition=center;align=center;html=1;outlineConnect=0;fillColor=#CCCCCC;strokeColor=#6881B3;gradientColor=none;gradientDirection=north;strokeWidth=2;shape=mxgraph.networks.switch;fontSize=16;" vertex="1" parent="1">
          <mxGeometry x="560" y="270" width="100" height="30" as="geometry" />
        </mxCell>
        <mxCell id="Wi1XZ3cjMd3mnHMxQqUJ-116" value="Manager &lt;br&gt;firewalll" style="text;html=1;align=center;verticalAlign=middle;resizable=0;points=[];autosize=1;strokeColor=none;fillColor=none;fontSize=16;" vertex="1" parent="1">
          <mxGeometry x="235" y="118" width="90" height="50" as="geometry" />
        </mxCell>
        <mxCell id="Wi1XZ3cjMd3mnHMxQqUJ-119" value="biometric" style="text;strokeColor=none;fillColor=none;html=1;align=center;verticalAlign=middle;whiteSpace=wrap;rounded=0;fontSize=16;" vertex="1" parent="1">
          <mxGeometry x="185" y="120" width="60" height="30" as="geometry" />
        </mxCell>
        <mxCell id="Wi1XZ3cjMd3mnHMxQqUJ-120" value="Manager&#39;s computer" style="text;strokeColor=none;fillColor=none;html=1;align=center;verticalAlign=middle;whiteSpace=wrap;rounded=0;fontSize=16;" vertex="1" parent="1">
          <mxGeometry x="110" y="118" width="60" height="30" as="geometry" />
        </mxCell>
        <mxCell id="Wi1XZ3cjMd3mnHMxQqUJ-121" value="ISP Router" style="text;strokeColor=none;fillColor=none;html=1;align=center;verticalAlign=middle;whiteSpace=wrap;rounded=0;fontSize=16;" vertex="1" parent="1">
          <mxGeometry x="370" y="35" width="60" height="30" as="geometry" />
        </mxCell>
        <mxCell id="Wi1XZ3cjMd3mnHMxQqUJ-122" value="" style="fontColor=#0066CC;verticalAlign=top;verticalLabelPosition=bottom;labelPosition=center;align=center;html=1;outlineConnect=0;fillColor=#CCCCCC;strokeColor=#6881B3;gradientColor=none;gradientDirection=north;strokeWidth=2;shape=mxgraph.networks.router;fontSize=16;" vertex="1" parent="1">
          <mxGeometry x="355" y="75" width="100" height="30" as="geometry" />
        </mxCell>
        <mxCell id="Wi1XZ3cjMd3mnHMxQqUJ-136" value="B(ii): Additional purchases: firewall service between manager computer and router.&lt;br&gt;Fire wall service between router and 2 switches." style="text;strokeColor=none;fillColor=none;html=1;align=center;verticalAlign=middle;whiteSpace=wrap;rounded=0;fontSize=16;" vertex="1" parent="1">
          <mxGeometry x="485" y="5" width="360" height="30" as="geometry" />
        </mxCell>
        <mxCell id="Wi1XZ3cjMd3mnHMxQqUJ-137" value="" style="fontColor=#0066CC;verticalAlign=top;verticalLabelPosition=bottom;labelPosition=center;align=center;html=1;outlineConnect=0;fillColor=#CCCCCC;strokeColor=#6881B3;gradientColor=none;gradientDirection=north;strokeWidth=2;shape=mxgraph.networks.pc;fontSize=16;" vertex="1" parent="1">
          <mxGeometry x="155" y="500" width="60" height="40" as="geometry" />
        </mxCell>
        <mxCell id="Wi1XZ3cjMd3mnHMxQqUJ-139" value="" style="fontColor=#0066CC;verticalAlign=top;verticalLabelPosition=bottom;labelPosition=center;align=center;html=1;outlineConnect=0;fillColor=#CCCCCC;strokeColor=#6881B3;gradientColor=none;gradientDirection=north;strokeWidth=2;shape=mxgraph.networks.pc;fontSize=16;" vertex="1" parent="1">
          <mxGeometry x="275" y="405" width="60" height="40" as="geometry" />
        </mxCell>
        <mxCell id="Wi1XZ3cjMd3mnHMxQqUJ-140" value="" style="fontColor=#0066CC;verticalAlign=top;verticalLabelPosition=bottom;labelPosition=center;align=center;html=1;outlineConnect=0;fillColor=#CCCCCC;strokeColor=#6881B3;gradientColor=none;gradientDirection=north;strokeWidth=2;shape=mxgraph.networks.pc;fontSize=16;" vertex="1" parent="1">
          <mxGeometry x="630" y="500" width="60" height="40" as="geometry" />
        </mxCell>
        <mxCell id="Wi1XZ3cjMd3mnHMxQqUJ-141" value="" style="fontColor=#0066CC;verticalAlign=top;verticalLabelPosition=bottom;labelPosition=center;align=center;html=1;outlineConnect=0;fillColor=#CCCCCC;strokeColor=#6881B3;gradientColor=none;gradientDirection=north;strokeWidth=2;shape=mxgraph.networks.pc;fontSize=16;" vertex="1" parent="1">
          <mxGeometry x="780" y="495" width="60" height="40" as="geometry" />
        </mxCell>
        <mxCell id="Wi1XZ3cjMd3mnHMxQqUJ-142" value="" style="fontColor=#0066CC;verticalAlign=top;verticalLabelPosition=bottom;labelPosition=center;align=center;html=1;outlineConnect=0;fillColor=#CCCCCC;strokeColor=#6881B3;gradientColor=none;gradientDirection=north;strokeWidth=2;shape=mxgraph.networks.pc;fontSize=16;" vertex="1" parent="1">
          <mxGeometry x="720" y="260" width="60" height="40" as="geometry" />
        </mxCell>
        <mxCell id="Wi1XZ3cjMd3mnHMxQqUJ-180" style="edgeStyle=none;curved=1;rounded=0;orthogonalLoop=1;jettySize=auto;html=1;exitX=0.95;exitY=0.05;exitDx=0;exitDy=0;exitPerimeter=0;fontSize=12;startSize=8;endSize=8;" edge="1" parent="1" source="Wi1XZ3cjMd3mnHMxQqUJ-144" target="Wi1XZ3cjMd3mnHMxQqUJ-57">
          <mxGeometry relative="1" as="geometry" />
        </mxCell>
        <mxCell id="Wi1XZ3cjMd3mnHMxQqUJ-181" style="edgeStyle=none;curved=1;rounded=0;orthogonalLoop=1;jettySize=auto;html=1;exitX=0.1;exitY=1;exitDx=0;exitDy=0;exitPerimeter=0;fontSize=12;startSize=8;endSize=8;" edge="1" parent="1" source="Wi1XZ3cjMd3mnHMxQqUJ-144">
          <mxGeometry relative="1" as="geometry">
            <mxPoint x="310" y="590" as="targetPoint" />
          </mxGeometry>
        </mxCell>
        <mxCell id="Wi1XZ3cjMd3mnHMxQqUJ-182" style="edgeStyle=none;curved=1;rounded=0;orthogonalLoop=1;jettySize=auto;html=1;exitX=0.9;exitY=1;exitDx=0;exitDy=0;exitPerimeter=0;fontSize=12;startSize=8;endSize=8;" edge="1" parent="1" source="Wi1XZ3cjMd3mnHMxQqUJ-144">
          <mxGeometry relative="1" as="geometry">
            <mxPoint x="560" y="600" as="targetPoint" />
          </mxGeometry>
        </mxCell>
        <mxCell id="Wi1XZ3cjMd3mnHMxQqUJ-184" style="edgeStyle=none;curved=1;rounded=0;orthogonalLoop=1;jettySize=auto;html=1;exitX=0.5;exitY=0;exitDx=0;exitDy=0;exitPerimeter=0;fontSize=12;startSize=8;endSize=8;" edge="1" parent="1" source="Wi1XZ3cjMd3mnHMxQqUJ-144">
          <mxGeometry relative="1" as="geometry">
            <mxPoint x="500" y="600" as="targetPoint" />
          </mxGeometry>
        </mxCell>
        <mxCell id="Wi1XZ3cjMd3mnHMxQqUJ-144" value="" style="fontColor=#0066CC;verticalAlign=top;verticalLabelPosition=bottom;labelPosition=center;align=center;html=1;outlineConnect=0;fillColor=#CCCCCC;strokeColor=#6881B3;gradientColor=none;gradientDirection=north;strokeWidth=2;shape=mxgraph.networks.switch;fontSize=16;" vertex="1" parent="1">
          <mxGeometry x="385" y="420" width="100" height="30" as="geometry" />
        </mxCell>
        <mxCell id="Wi1XZ3cjMd3mnHMxQqUJ-147" value="" style="edgeStyle=none;curved=1;rounded=0;orthogonalLoop=1;jettySize=auto;html=1;exitX=0.5;exitY=1;exitDx=0;exitDy=0;exitPerimeter=0;fontSize=12;startSize=8;endSize=8;" edge="1" parent="1" source="Wi1XZ3cjMd3mnHMxQqUJ-84" target="Wi1XZ3cjMd3mnHMxQqUJ-146">
          <mxGeometry relative="1" as="geometry">
            <mxPoint x="410" y="236" as="sourcePoint" />
            <mxPoint x="433" y="420" as="targetPoint" />
          </mxGeometry>
        </mxCell>
        <mxCell id="Wi1XZ3cjMd3mnHMxQqUJ-146" value="Switch 3" style="text;strokeColor=none;fillColor=none;html=1;align=center;verticalAlign=middle;whiteSpace=wrap;rounded=0;fontSize=16;" vertex="1" parent="1">
          <mxGeometry x="390" y="380" width="70" height="30" as="geometry" />
        </mxCell>
        <mxCell id="Wi1XZ3cjMd3mnHMxQqUJ-150" value="" style="fontColor=#0066CC;verticalAlign=top;verticalLabelPosition=bottom;labelPosition=center;align=center;html=1;outlineConnect=0;fillColor=#CCCCCC;strokeColor=#6881B3;gradientColor=none;gradientDirection=north;strokeWidth=2;shape=mxgraph.networks.pc;fontSize=16;" vertex="1" parent="1">
          <mxGeometry x="275" y="604" width="60" height="40" as="geometry" />
        </mxCell>
        <mxCell id="Wi1XZ3cjMd3mnHMxQqUJ-151" value="" style="fontColor=#0066CC;verticalAlign=top;verticalLabelPosition=bottom;labelPosition=center;align=center;html=1;outlineConnect=0;fillColor=#CCCCCC;strokeColor=#6881B3;gradientColor=none;gradientDirection=north;strokeWidth=2;shape=mxgraph.networks.pc;fontSize=16;" vertex="1" parent="1">
          <mxGeometry x="337.5" y="604" width="60" height="40" as="geometry" />
        </mxCell>
        <mxCell id="Wi1XZ3cjMd3mnHMxQqUJ-152" value="" style="fontColor=#0066CC;verticalAlign=top;verticalLabelPosition=bottom;labelPosition=center;align=center;html=1;outlineConnect=0;fillColor=#CCCCCC;strokeColor=#6881B3;gradientColor=none;gradientDirection=north;strokeWidth=2;shape=mxgraph.networks.pc;fontSize=16;" vertex="1" parent="1">
          <mxGeometry x="457.5" y="604" width="60" height="40" as="geometry" />
        </mxCell>
        <mxCell id="Wi1XZ3cjMd3mnHMxQqUJ-157" value="" style="fontColor=#0066CC;verticalAlign=top;verticalLabelPosition=bottom;labelPosition=center;align=center;html=1;outlineConnect=0;fillColor=#CCCCCC;strokeColor=#6881B3;gradientColor=none;gradientDirection=north;strokeWidth=2;shape=mxgraph.networks.pc;fontSize=16;" vertex="1" parent="1">
          <mxGeometry x="397.5" y="604" width="60" height="40" as="geometry" />
        </mxCell>
        <mxCell id="Wi1XZ3cjMd3mnHMxQqUJ-158" value="" style="fontColor=#0066CC;verticalAlign=top;verticalLabelPosition=bottom;labelPosition=center;align=center;html=1;outlineConnect=0;fillColor=#CCCCCC;strokeColor=#6881B3;gradientColor=none;gradientDirection=north;strokeWidth=2;shape=mxgraph.networks.pc;fontSize=16;" vertex="1" parent="1">
          <mxGeometry x="517.5" y="604" width="60" height="40" as="geometry" />
        </mxCell>
        <mxCell id="Wi1XZ3cjMd3mnHMxQqUJ-160" style="edgeStyle=none;curved=1;rounded=0;orthogonalLoop=1;jettySize=auto;html=1;exitX=0.5;exitY=1;exitDx=0;exitDy=0;exitPerimeter=0;fontSize=12;startSize=8;endSize=8;" edge="1" parent="1" source="Wi1XZ3cjMd3mnHMxQqUJ-144">
          <mxGeometry relative="1" as="geometry">
            <mxPoint x="437" y="600" as="targetPoint" />
          </mxGeometry>
        </mxCell>
        <mxCell id="Wi1XZ3cjMd3mnHMxQqUJ-161" style="edgeStyle=none;curved=1;rounded=0;orthogonalLoop=1;jettySize=auto;html=1;exitX=0.5;exitY=1;exitDx=0;exitDy=0;fontSize=12;startSize=8;endSize=8;" edge="1" parent="1">
          <mxGeometry relative="1" as="geometry">
            <mxPoint x="437.5" y="600" as="sourcePoint" />
            <mxPoint x="437.5" y="600" as="targetPoint" />
          </mxGeometry>
        </mxCell>
        <mxCell id="Wi1XZ3cjMd3mnHMxQqUJ-162" style="edgeStyle=none;curved=1;rounded=0;orthogonalLoop=1;jettySize=auto;html=1;exitX=0.25;exitY=0;exitDx=0;exitDy=0;entryX=0.269;entryY=-0.067;entryDx=0;entryDy=0;entryPerimeter=0;fontSize=12;startSize=8;endSize=8;" edge="1" parent="1" source="Wi1XZ3cjMd3mnHMxQqUJ-136" target="Wi1XZ3cjMd3mnHMxQqUJ-136">
          <mxGeometry relative="1" as="geometry" />
        </mxCell>
        <mxCell id="Wi1XZ3cjMd3mnHMxQqUJ-169" style="edgeStyle=none;curved=1;rounded=0;orthogonalLoop=1;jettySize=auto;html=1;exitX=0.5;exitY=0;exitDx=0;exitDy=0;exitPerimeter=0;fontSize=12;startSize=8;endSize=8;" edge="1" parent="1" source="Wi1XZ3cjMd3mnHMxQqUJ-29" target="Wi1XZ3cjMd3mnHMxQqUJ-137">
          <mxGeometry relative="1" as="geometry" />
        </mxCell>
        <mxCell id="Wi1XZ3cjMd3mnHMxQqUJ-171" style="edgeStyle=none;curved=1;rounded=0;orthogonalLoop=1;jettySize=auto;html=1;exitX=0.05;exitY=0.05;exitDx=0;exitDy=0;exitPerimeter=0;entryX=0.5;entryY=0.07;entryDx=0;entryDy=0;entryPerimeter=0;fontSize=12;startSize=8;endSize=8;" edge="1" parent="1" source="Wi1XZ3cjMd3mnHMxQqUJ-29" target="Wi1XZ3cjMd3mnHMxQqUJ-38">
          <mxGeometry relative="1" as="geometry" />
        </mxCell>
        <mxCell id="Wi1XZ3cjMd3mnHMxQqUJ-176" style="edgeStyle=none;curved=1;rounded=0;orthogonalLoop=1;jettySize=auto;html=1;exitX=0.1;exitY=1;exitDx=0;exitDy=0;exitPerimeter=0;entryX=0.5;entryY=0.07;entryDx=0;entryDy=0;entryPerimeter=0;fontSize=12;startSize=8;endSize=8;" edge="1" parent="1" source="Wi1XZ3cjMd3mnHMxQqUJ-113" target="Wi1XZ3cjMd3mnHMxQqUJ-140">
          <mxGeometry relative="1" as="geometry" />
        </mxCell>
        <mxCell id="Wi1XZ3cjMd3mnHMxQqUJ-177" style="edgeStyle=none;curved=1;rounded=0;orthogonalLoop=1;jettySize=auto;html=1;exitX=0.5;exitY=0;exitDx=0;exitDy=0;exitPerimeter=0;entryX=0.5;entryY=0;entryDx=0;entryDy=0;entryPerimeter=0;fontSize=12;startSize=8;endSize=8;" edge="1" parent="1" source="Wi1XZ3cjMd3mnHMxQqUJ-113" target="Wi1XZ3cjMd3mnHMxQqUJ-43">
          <mxGeometry relative="1" as="geometry" />
        </mxCell>
        <mxCell id="Wi1XZ3cjMd3mnHMxQqUJ-183" style="edgeStyle=none;curved=1;rounded=0;orthogonalLoop=1;jettySize=auto;html=1;exitX=0;exitY=0.5;exitDx=0;exitDy=0;exitPerimeter=0;entryX=0.5;entryY=0.07;entryDx=0;entryDy=0;entryPerimeter=0;fontSize=12;startSize=8;endSize=8;" edge="1" parent="1" source="Wi1XZ3cjMd3mnHMxQqUJ-144" target="Wi1XZ3cjMd3mnHMxQqUJ-151">
          <mxGeometry relative="1" as="geometry" />
        </mxCell>
      </root>
    </mxGraphModel>
  </diagram>
</mxfile>
